<svg xmlns="http://www.w3.org/2000/svg" xmlns:xlink="http://www.w3.org/1999/xlink" width="257pt" height="85pt" viewBox="0.00 0.00 256.59 85.00">
<g id="graph0" class="graph" transform="scale(1 1) rotate(0) translate(4 81)">
<title>finite_state_machine</title>
<polygon fill="white" stroke="none" points="-4,4 -4,-81 252.59,-81 252.59,4 -4,4"/>
<!-- S -->
<g id="node1" class="node">
<title>S</title>
<ellipse fill="none" stroke="black" cx="62.6" cy="-22" rx="18" ry="18"/>
<ellipse fill="none" stroke="black" cx="62.6" cy="-22" rx="22" ry="22"/>
<text text-anchor="middle" x="62.6" y="-18.3" font-family="Times,serif" font-size="14.00">S</text>
</g>
<!-- S&#45;&gt;S -->
<g id="edge3" class="edge">
<title>S-&gt;S</title>
<path fill="none" stroke="black" d="M55.19,-42.99C54.28,-53.09 56.75,-62 62.6,-62 66.35,-62 68.71,-58.34 69.68,-53.06"/>
<polygon fill="black" stroke="black" points="73.18,-53.1 70.01,-42.99 66.19,-52.87 73.18,-53.1"/>
<text text-anchor="middle" x="62.6" y="-65.8" font-family="Times,serif" font-size="14.00">a</text>
</g>
<!-- q1 -->
<g id="node3" class="node">
<title>q1</title>
<ellipse fill="none" stroke="black" cx="147.1" cy="-22" rx="19.5" ry="19.5"/>
<text text-anchor="middle" x="147.1" y="-18.3" font-family="Times,serif" font-size="14.00">q1</text>
</g>
<!-- S&#45;&gt;q1 -->
<g id="edge2" class="edge">
<title>S-&gt;q1</title>
<path fill="none" stroke="black" d="M84.85,-22C94.73,-22 106.63,-22 117.31,-22"/>
<polygon fill="black" stroke="black" points="117.45,-25.5 127.45,-22 117.45,-18.5 117.45,-25.5"/>
<text text-anchor="middle" x="106.1" y="-25.8" font-family="Times,serif" font-size="14.00">a</text>
</g>
<!-- qi -->
<g id="node2" class="node">
<title>qi</title>
<ellipse fill="black" stroke="black" cx="1.8" cy="-22" rx="1.8" ry="1.8"/>
</g>
<!-- qi&#45;&gt;S -->
<g id="edge1" class="edge">
<title>qi-&gt;S</title>
<path fill="none" stroke="black" d="M3.82,-22C7.19,-22 18.44,-22 30.12,-22"/>
<polygon fill="black" stroke="black" points="30.31,-25.5 40.31,-22 30.31,-18.5 30.31,-25.5"/>
</g>
<!-- q1&#45;&gt;S -->
<g id="edge4" class="edge">
<title>q1-&gt;S</title>
<path fill="none" stroke="black" d="M130.41,-11.73C124.19,-8.23 116.82,-4.77 109.6,-3 103.1,-1.41 96.32,-2.52 90.03,-4.84"/>
<polygon fill="black" stroke="black" points="88.2,-1.84 80.66,-9.28 91.19,-8.17 88.2,-1.84"/>
<text text-anchor="middle" x="106.1" y="-6.8" font-family="Times,serif" font-size="14.00">a</text>
</g>
<!-- q2 -->
<g id="node4" class="node">
<title>q2</title>
<ellipse fill="none" stroke="black" cx="229.09" cy="-22" rx="19.5" ry="19.5"/>
<text text-anchor="middle" x="229.09" y="-18.3" font-family="Times,serif" font-size="14.00">q2</text>
</g>
<!-- q1&#45;&gt;q2 -->
<g id="edge5" class="edge">
<title>q1-&gt;q2</title>
<path fill="none" stroke="black" d="M166.65,-22C176.28,-22 188.25,-22 199.07,-22"/>
<polygon fill="black" stroke="black" points="199.36,-25.5 209.36,-22 199.36,-18.5 199.36,-25.5"/>
<text text-anchor="middle" x="188.1" y="-25.8" font-family="Times,serif" font-size="14.00">b</text>
</g>
<!-- q2&#45;&gt;q1 -->
<g id="edge6" class="edge">
<title>q2-&gt;q1</title>
<path fill="none" stroke="black" d="M213.24,-10.12C205.04,-4.95 194.52,-0.57 184.6,-3 180.65,-3.97 176.66,-5.44 172.83,-7.15"/>
<polygon fill="black" stroke="black" points="171.13,-4.09 163.79,-11.73 174.29,-10.33 171.13,-4.09"/>
<text text-anchor="middle" x="188.1" y="-6.8" font-family="Times,serif" font-size="14.00">b</text>
</g>
<!-- q2&#45;&gt;q2 -->
<g id="edge7" class="edge">
<title>q2-&gt;q2</title>
<path fill="none" stroke="black" d="M221.78,-40.13C220.41,-50.22 222.85,-59.5 229.09,-59.5 233.1,-59.5 235.54,-55.69 236.41,-50.3"/>
<polygon fill="black" stroke="black" points="239.91,-50.14 236.41,-40.13 232.91,-50.13 239.91,-50.14"/>
<text text-anchor="middle" x="229.09" y="-63.3" font-family="Times,serif" font-size="14.00">b</text>
</g>
</g>
</svg>