<svg xmlns="http://www.w3.org/2000/svg" xmlns:xlink="http://www.w3.org/1999/xlink" width="379pt" height="100pt" viewBox="0.00 0.00 379.39 99.70">
<g id="graph0" class="graph" transform="scale(1 1) rotate(0) translate(4 95.7)">
<title>finite_state_machine</title>
<polygon fill="white" stroke="none" points="-4,4 -4,-95.7 375.39,-95.7 375.39,4 -4,4"/>
<text text-anchor="middle" x="185.69" y="-7.8" font-family="Gill Sans" font-size="14.00">Test</text>
<!-- s0 -->
<g id="node1" class="node">
<title>s0</title>
<ellipse fill="none" stroke="black" cx="59.45" cy="-41.85" rx="18.7" ry="18.7"/>
<text text-anchor="middle" x="59.45" y="-38.15" font-family="Gill Sans" font-size="14.00">s0</text>
</g>
<!-- s1 -->
<g id="node3" class="node">
<title>s1</title>
<ellipse fill="none" stroke="black" cx="157.14" cy="-72.85" rx="18.7" ry="18.7"/>
<text text-anchor="middle" x="157.14" y="-69.15" font-family="Gill Sans" font-size="14.00">s1</text>
</g>
<!-- s0&#45;&gt;s1 -->
<g id="edge2" class="edge">
<title>s0-&gt;s1</title>
<path fill="none" stroke="black" d="M77.56,-47.39C91.89,-52.03 112.61,-58.75 129.18,-64.11"/>
<polygon fill="black" stroke="black" points="128.27,-67.5 138.86,-67.25 130.43,-60.84 128.27,-67.5"/>
<text text-anchor="middle" x="108.3" y="-65.65" font-family="Gill Sans" font-size="14.00">a/L1</text>
</g>
<!-- qi -->
<g id="node2" class="node">
<title>qi</title>
<ellipse fill="black" stroke="black" cx="1.8" cy="-41.85" rx="1.8" ry="1.8"/>
</g>
<!-- qi&#45;&gt;s0 -->
<g id="edge1" class="edge">
<title>qi-&gt;s0</title>
<path fill="none" stroke="black" d="M3.77,-41.85C7.14,-41.85 18.81,-41.85 30.51,-41.85"/>
<polygon fill="black" stroke="black" points="30.6,-45.35 40.6,-41.85 30.6,-38.35 30.6,-45.35"/>
</g>
<!-- s2 -->
<g id="node4" class="node">
<title>s2</title>
<ellipse fill="none" stroke="black" cx="254.84" cy="-72.85" rx="18.7" ry="18.7"/>
<text text-anchor="middle" x="254.84" y="-69.15" font-family="Gill Sans" font-size="14.00">s2</text>
</g>
<!-- s1&#45;&gt;s2 -->
<g id="edge3" class="edge">
<title>s1-&gt;s2</title>
<path fill="none" stroke="black" d="M176.14,-72.85C190.05,-72.85 209.54,-72.85 225.53,-72.85"/>
<polygon fill="black" stroke="black" points="225.92,-76.35 235.92,-72.85 225.92,-69.35 225.92,-76.35"/>
<text text-anchor="middle" x="205.99" y="-76.65" font-family="Gill Sans" font-size="14.00">a/L2</text>
</g>
<!-- s3 -->
<g id="node5" class="node">
<title>s3</title>
<ellipse fill="none" stroke="black" cx="352.54" cy="-41.85" rx="18.7" ry="18.7"/>
<text text-anchor="middle" x="352.54" y="-38.15" font-family="Gill Sans" font-size="14.00">s3</text>
</g>
<!-- s2&#45;&gt;s3 -->
<g id="edge4" class="edge">
<title>s2-&gt;s3</title>
<path fill="none" stroke="black" d="M272.95,-67.31C287.29,-62.66 308.01,-55.95 324.57,-50.58"/>
<polygon fill="black" stroke="black" points="325.82,-53.86 334.26,-47.45 323.66,-47.2 325.82,-53.86"/>
<text text-anchor="middle" x="303.69" y="-65.65" font-family="Gill Sans" font-size="14.00">a/L3</text>
</g>
<!-- s3&#45;&gt;s0 -->
<g id="edge5" class="edge">
<title>s3-&gt;s0</title>
<path fill="none" stroke="black" d="M333.34,-41.85C284.13,-41.85 148.19,-41.85 88.81,-41.85"/>
<polygon fill="black" stroke="black" points="88.66,-38.35 78.66,-41.85 88.66,-45.35 88.66,-38.35"/>
<text text-anchor="middle" x="205.99" y="-45.65" font-family="Gill Sans" font-size="14.00">a/L0</text>
</g>
</g>
</svg>